<svg width="21" height="12" viewBox="0 0 21 12" fill="none" xmlns="http://www.w3.org/2000/svg">
<g clip-path="url(#clip0_9_896)">
<path d="M0 0H21V12H0V0Z" fill="#D80027"/>
<path d="M9.2843 8.39287L8.88722 7.8455L8.15447 7.99989L8.64161 7.50515L8.24453 6.95778L8.94453 7.19989L9.42757 6.70515L9.37436 7.35076L10.0744 7.59287L9.34161 7.74725L9.2843 8.39287ZM11.896 2.87708L11.4825 3.41743L11.9574 3.91918L11.2328 3.75076L10.8194 4.29462L10.7784 3.64901L10.0539 3.48059L10.758 3.24901L10.717 2.60339L11.1919 3.10515L11.896 2.87708ZM9.66909 0.891113L9.58722 1.53322L10.2749 1.79989L9.5381 1.93322L9.45623 2.57532L9.07962 2.01392L8.34687 2.14725L8.85038 1.66655L8.47377 1.10866L9.16149 1.37181L9.66909 0.891113ZM11.9861 5.67708L11.3761 6.05953L11.6135 6.67357L11.0036 6.29462L10.3937 6.68059L10.6229 6.06304L10.013 5.6876L10.7662 5.6841L10.9954 5.06655L11.2328 5.68059L11.9861 5.67708ZM4.70769 1.62445L5.41588 3.50164H7.71646L5.85798 4.65603L6.56617 6.53322L4.70769 5.37532L2.84512 6.53322L3.5574 4.65603L1.69482 3.50164H3.9995L4.70769 1.62445Z" fill="#FFDA44"/>
</g>
<defs>
<clipPath id="clip0_9_896">
<rect width="21" height="12" fill="white"/>
</clipPath>
</defs>
</svg>
