<svg width="21" height="12" viewBox="0 0 21 12" fill="none" xmlns="http://www.w3.org/2000/svg">
<g clip-path="url(#clip0_9_897)">
<path d="M0 0H21V12.0001H0V0Z" fill="white"/>
<path d="M11.8125 -0.000244141H9.1875V4.87474H0V7.12474H9.1875V11.9997H11.8125V7.12474H21V4.87474H11.8125V-0.000244141Z" fill="#D80027"/>
<path d="M16.1515 8.08691L21.0001 10.3958V8.08691H16.1515ZM12.7827 8.08691L21.0001 11.9999V10.8934L15.1065 8.08691H12.7827ZM18.8113 11.9999L12.7827 9.12895V11.9999H18.8113Z" fill="#0052B4"/>
<path d="M12.7827 8.08691L21.0001 11.9999V10.8934L15.1065 8.08691H12.7827Z" fill="white"/>
<path d="M12.7827 8.08691L21.0001 11.9999V10.8934L15.1065 8.08691H12.7827Z" fill="#D80027"/>
<path d="M3.70539 8.08667L0 9.85116V8.08667H3.70539ZM8.2174 8.58427V11.9997H1.04553L8.2174 8.58427Z" fill="#0052B4"/>
<path d="M5.89366 8.08691L0 10.8934V11.9999L8.2174 8.08691H5.89366Z" fill="#D80027"/>
<path d="M4.84866 3.91279L0 1.60387V3.91279H4.84866ZM8.2174 3.91279L0 -0.000244141V1.10626L5.89366 3.91279H8.2174ZM2.18884 -0.000244141L8.2174 2.87076V-0.000244141H2.18884Z" fill="#0052B4"/>
<path d="M8.2174 3.91279L0 -0.000244141V1.10626L5.89366 3.91279H8.2174Z" fill="white"/>
<path d="M8.2174 3.91279L0 -0.000244141V1.10626L5.89366 3.91279H8.2174Z" fill="#D80027"/>
<path d="M17.2947 3.91307L21.0001 2.14858V3.91307H17.2947ZM12.7827 3.41547V0H19.9546L12.7827 3.41547Z" fill="#0052B4"/>
<path d="M15.1065 3.91304L21.0001 1.10651V0L12.7827 3.91304H15.1065Z" fill="#D80027"/>
</g>
<defs>
<clipPath id="clip0_9_897">
<rect width="21" height="12" fill="white"/>
</clipPath>
</defs>
</svg>
