<svg width="16" height="16" viewBox="0 0 16 16" fill="none" xmlns="http://www.w3.org/2000/svg">
    <g clip-path="url(#clip0_1832_149260)">
        <path
            d="M6.10227 3.60624C6.9467 2.0914 7.3689 1.33398 8.00016 1.33398C8.63143 1.33398 9.05363 2.0914 9.89803 3.60623L10.1165 3.99814C10.3565 4.4286 10.4764 4.64384 10.6636 4.78586C10.8506 4.92787 11.0836 4.98058 11.5496 5.08602L11.9738 5.182C13.6136 5.55302 14.4335 5.73853 14.6286 6.3658C14.8236 6.99305 14.2647 7.64672 13.1468 8.95392L12.8576 9.29212C12.5399 9.66358 12.381 9.84932 12.3096 10.0791C12.2382 10.3089 12.2622 10.5567 12.3102 11.0524L12.3539 11.5036C12.5229 13.2477 12.6074 14.1198 12.0968 14.5075C11.586 14.8951 10.8184 14.5417 9.28303 13.8348L8.88583 13.6519C8.44956 13.451 8.23143 13.3505 8.00016 13.3505C7.7689 13.3505 7.55076 13.451 7.1145 13.6519L6.7173 13.8348C5.18195 14.5417 4.41428 14.8951 3.9036 14.5075C3.39291 14.1198 3.47742 13.2477 3.64643 11.5036L3.69015 11.0524C3.73818 10.5567 3.7622 10.3089 3.69074 10.0791C3.61928 9.84932 3.46045 9.66358 3.14278 9.29212L2.85356 8.95392C1.73566 7.64672 1.17671 6.99305 1.37178 6.3658C1.56684 5.73853 2.38674 5.55302 4.02652 5.182L4.45076 5.08602C4.91673 4.98058 5.14972 4.92787 5.33679 4.78586C5.52386 4.64384 5.64385 4.42861 5.88381 3.99814L6.10227 3.60624Z"
            stroke="#ffba5c" stroke-width="1.5" />
    </g>
    <defs>
        <clipPath id="clip0_1832_149260">
            <rect width="16" height="16" fill="white" />
        </clipPath>
    </defs>
</svg>