<svg width="86" height="73" viewBox="0 0 86 73" fill="none" xmlns="http://www.w3.org/2000/svg">
<path d="M46.4695 23.7979C46.1454 23.9595 45.9544 24.2859 45.9066 24.6898C46.0124 24.6284 46.1386 24.5896 46.275 24.5896C46.6605 24.5896 46.9743 24.8869 46.9743 25.2521C46.9743 25.6173 46.6605 25.9146 46.275 25.9146C46.2239 25.9146 46.1727 25.9081 46.1249 25.8984C46.1556 25.9631 46.1863 26.0245 46.2204 26.0859C46.7424 27.0263 47.6975 27.5207 48.3558 27.1943C49.0142 26.8679 49.1268 25.8403 48.6049 24.8999C48.0829 23.9595 47.1278 23.465 46.4695 23.7914V23.7979Z" fill="white"/>
<path d="M58.2997 20.1428C58.2997 20.4983 57.9961 20.7891 57.6175 20.7891C57.5663 20.7891 57.5186 20.7827 57.4708 20.773C57.4981 20.8344 57.5288 20.8958 57.5629 20.9572C58.0678 21.8717 58.999 22.3532 59.6403 22.0333C60.2816 21.7134 60.3908 20.7148 59.8825 19.8035C59.3777 18.8889 58.4464 18.4074 57.8051 18.7274C57.4913 18.8825 57.3071 19.2024 57.2559 19.5967C57.3583 19.5353 57.4811 19.4997 57.6141 19.4997C57.9893 19.4997 58.2963 19.7873 58.2963 20.146L58.2997 20.1428Z" fill="white"/>
<path d="M3.09003 28.7164C4.61824 27.9538 6.24197 27.7146 7.94415 27.9667C9.10395 28.138 10.0454 28.697 10.9016 29.4338C11.7306 30.148 12.2968 31.0206 12.6072 32.0224C13.0029 33.2956 13.078 34.6109 12.9381 35.9262C12.8119 37.1251 12.6038 38.3176 12.4708 39.5165C12.3753 40.3535 12.3036 41.1905 12.4367 42.0371C12.8187 44.4673 14.2378 46.2447 16.3698 47.5309C17.1475 47.9995 18.0344 48.3226 18.8941 48.6587C24.0586 50.6882 30.7104 50.0903 35.7931 48.1287C38.0888 47.2433 40.2515 46.1542 42.131 44.5869C43.4478 43.4881 44.4404 42.2052 45.0067 40.6282C45.4297 39.4551 45.6616 38.2658 45.4024 37.0217C45.1329 35.7226 43.9594 34.5624 42.67 34.3394C42.0151 34.2263 41.3806 34.2683 40.787 34.5915C41.4215 34.6206 42.595 34.9922 42.7485 35.38C43.267 36.6888 42.1481 38.9283 41.401 39.9689C39.7739 42.2278 36.3525 45.2461 28.2816 44.0795C26.8216 43.8695 23.8744 43.2232 22.3223 42.5865C21.5309 42.2601 21.1045 41.6138 21.0977 40.7865C21.0977 40.2533 21.1557 39.7168 21.2273 39.1869C21.374 38.101 21.5445 37.0184 21.7185 35.9391C21.9675 34.4008 22.2165 32.8658 22.486 31.3308C23.7413 24.1728 28.8172 18.3979 35.6361 15.302C40.5039 13.0915 46.1153 12.8783 51.0001 15.1792C51.6073 15.4668 52.2452 15.7382 52.9036 15.8804C53.8723 16.0873 54.8343 15.8966 55.7724 15.5799C56.9731 15.1727 58.0988 14.73 59.2859 14.2905C60.1353 13.977 61.0563 13.6959 61.8818 14.7784C63.1678 16.4621 65.8081 20.2754 66.139 20.8927C66.504 21.5778 66.8724 22.544 65.5863 23.2227C64.0854 24.0144 64.2014 24.7318 64.8734 25.1778C70.1607 28.6873 70.0448 32.2066 69.7787 35.561C69.6286 37.4741 68.9702 39.287 68.3051 41.0871C68.2641 41.2002 68.1959 41.3036 68.1413 41.407C68.2437 40.5538 68.3596 39.7136 68.4449 38.8702C68.5848 37.4547 68.3972 36.0716 67.8991 34.7305C67.7559 34.3459 67.5478 33.984 67.3704 33.6155L67.309 33.6414C67.6058 34.9761 67.7456 36.3269 67.749 37.6906C67.7524 39.2515 67.5717 40.7962 67.3158 42.3345C67.0122 44.1765 66.6711 46.012 66.3846 47.8541C66.214 48.9463 65.6205 52.262 67.4182 53.1022C69.4035 54.0329 70.71 53.2444 71.7947 51.6383C74.1518 48.1384 75.3628 42.0371 75.4242 36.6016C75.4413 35.0439 75.3355 33.4927 75.1343 31.9448C74.9193 30.2805 74.5919 28.6356 74.1211 27.0198C72.0198 19.7939 67.9537 13.7443 61.8852 8.94538C54.9912 3.50333 47.0227 0.782307 38.0717 0.627189C36.4037 0.598105 34.739 0.70798 33.0812 0.901877C31.4609 1.08931 29.8576 1.36723 28.2782 1.75826C17.1748 4.51159 8.13859 11.7149 3.35952 21.6069C3.31858 21.6909 3.28106 21.7781 3.22989 21.8945C3.30835 21.8815 3.34928 21.8815 3.38681 21.8686C4.26007 21.623 5.15039 21.4873 6.05776 21.413C7.61326 21.2869 9.14147 21.4485 10.6288 21.8525C12.3787 22.3307 13.9512 23.1613 15.3191 24.302C17.7172 26.2959 19.1294 28.794 19.4433 31.8188C19.6138 33.454 19.3477 35.0536 18.9384 36.6403C18.4711 38.4501 17.7342 40.1693 16.9838 41.8853C16.5506 42.8741 16.1208 43.863 15.6978 44.8551C15.6227 45.0329 15.575 45.2203 15.4931 45.4788C15.1724 45.188 14.8757 44.9553 14.6267 44.6838C13.8455 43.8469 13.4157 42.858 13.3543 41.7463C13.2963 40.7413 13.6818 39.8655 14.3845 39.1255C15.1417 38.324 15.6295 37.4062 15.8274 36.3495C15.8717 36.1104 15.8615 35.8648 15.8752 35.6192L15.7865 35.603C15.4829 36.3883 15.1963 37.18 14.6062 37.8263C14.5755 37.7359 14.5755 37.6583 14.5823 37.5807C14.613 37.235 14.6642 36.8859 14.6676 36.5402C14.6744 35.7678 14.8757 35.0536 15.2782 34.3814C15.5272 33.9646 15.7626 33.5412 15.9638 33.1017C16.2265 32.5233 16.3664 31.9125 16.322 31.2791C16.2981 30.9559 16.1276 30.594 15.9297 30.4938C16.1924 31.4374 15.8922 32.2486 15.3601 33.0629C15.3055 32.966 15.2714 32.9272 15.2611 32.882C15.1486 32.3681 15.0053 31.8575 14.9337 31.3373C14.8347 30.5908 14.8075 29.8346 14.7188 29.0881C14.6505 28.5354 14.48 28.0055 14.1184 27.553C14.0126 27.4205 13.8694 27.3139 13.7193 27.1717C13.9103 27.8988 14.0877 28.5645 14.2651 29.2302L14.132 29.311C14.0536 29.2109 13.9683 29.1107 13.8967 29.004C13.4805 28.3997 13.0643 27.7986 12.6584 27.1911C12.3241 26.6934 12.0239 26.1731 11.6692 25.6852C11.195 25.0356 10.4002 24.7415 9.92605 24.7221C10.7618 25.2747 11.2325 26.2507 11.1814 26.2442C10.3115 26.1214 9.52012 25.8047 8.76283 25.3943C8.28868 25.1358 7.81793 24.8643 7.33355 24.6284C6.67519 24.3053 5.98272 24.3085 5.29025 24.5282C5.12992 24.5799 4.76833 24.6769 4.56366 24.7674C5.00371 24.7868 5.3687 24.8094 5.72688 24.8708C6.2522 24.9645 6.60696 25.3232 7.22098 25.5171C1.31963 26.1634 0.555522 30.2579 0.483887 30.5875C0.545288 30.5455 0.572578 30.5326 0.596456 30.51C1.31622 29.7667 2.1656 29.1818 3.10368 28.7132L3.09003 28.7164Z" fill="white"/>
<path d="M84.5593 48.4262C82.6593 47.014 80.0122 48.8398 79.1185 49.6316C78.0985 50.5364 77.2867 51.5996 76.4578 52.6564C75.5947 53.7583 74.7556 54.8733 73.6265 55.7587C72.2347 56.851 70.6587 57.465 68.8372 57.3875C68.2334 57.3616 67.633 57.2194 67.0736 57.1354C67.5716 57.5361 68.2163 57.7429 68.9088 57.8722C68.8167 57.9304 68.7314 57.9756 68.6427 57.9821C68.2504 58.0144 67.8616 58.0596 67.4693 58.0564C65.9001 58.0499 64.8051 57.2517 64.3753 55.8395C64.2594 55.4582 64.1195 55.0833 63.9523 54.7214C63.8534 54.5048 63.6795 54.3142 63.5362 54.1041C63.6078 54.7569 63.6795 55.3742 63.7545 56.0496C63.6453 55.9914 63.6044 55.9752 63.5737 55.9526C62.4275 55.0639 61.9909 53.9167 62.1853 52.5368C62.257 52.0165 62.3286 51.493 62.3593 50.9695C62.3866 50.5203 62.2638 50.1583 62.1478 50.0194C61.9841 50.6625 61.8135 51.3411 61.6396 52.023C61.6157 52.0133 61.5952 52.01 61.5884 52.0003C61.5679 51.9648 61.5475 51.9293 61.5338 51.8937C61.1859 51.0018 61.1381 50.0905 61.3223 49.163C61.4861 48.3486 61.8886 47.6183 62.3013 46.8976C62.7448 46.1188 63.0245 45.3012 62.987 44.503C62.7584 44.9813 62.2502 46.3159 61.8954 46.471C61.7385 45.9734 61.8613 44.545 62.0898 43.7209C62.4651 42.3895 62.8846 41.0678 63.1917 39.7234C63.8261 36.5952 64.215 31.095 60.6674 31.4699C58.2113 31.7284 57.8736 34.7144 57.3176 36.9959C57.0515 38.308 56.8775 39.6426 56.3795 40.903C55.9633 41.9597 55.3903 42.9195 54.3533 43.5561C54.1964 43.6531 54.0531 43.7694 53.9132 43.889C53.4118 44.3156 53.0468 44.8262 52.8694 45.4499C52.8387 45.5597 52.8387 45.6761 52.8251 45.7892L52.8933 45.8183C53.48 45.1429 54.1145 44.5192 54.9843 44.0279C54.8922 44.3349 54.8274 44.5741 54.749 44.8132C54.4317 45.7601 53.8825 46.5195 52.9274 47.0075C51.8222 47.5698 50.9353 48.3777 50.1984 49.331C50.062 49.5055 49.9631 49.7059 49.8471 49.8933L49.9085 49.9386C50.6248 49.2147 51.4981 48.73 52.5112 48.3874C52.4908 48.4617 52.4908 48.4973 52.4737 48.5199C52.061 49.0466 51.6687 49.5896 51.2218 50.0905C50.6692 50.7109 49.9801 51.1537 49.1307 51.3443C48.6736 51.4477 48.2165 51.5544 47.7731 51.6966C47.0329 51.9357 46.4973 52.4043 46.1698 53.0829C46.146 53.1346 46.1357 53.1896 46.1016 53.2962C46.8248 52.8535 47.4388 52.3364 48.2507 52.1587C48.2677 52.2104 48.278 52.2233 48.278 52.2395C48.278 52.2621 48.2745 52.288 48.2677 52.3106C47.9914 53.2768 47.3672 53.9684 46.4257 54.4176C45.7332 54.7472 44.9827 54.8603 44.2289 54.9702C43.4921 55.0768 42.8883 55.3968 42.4414 55.9623C42.3698 56.056 42.3152 56.1594 42.2504 56.2596C42.6665 56.111 43.0384 55.9106 43.4238 55.7523C43.8809 55.5067 44.8599 55.3968 44.8292 55.442C44.2869 56.2532 43.5125 57.0578 42.5506 57.423C41.8854 57.6783 41.1997 57.7591 40.4663 57.7171C39.3338 57.6524 38.423 58.1501 37.6828 58.9419C37.6316 58.9968 37.6009 59.0711 37.5429 59.1681C39.0677 58.4636 40.115 58.3408 40.497 58.4086C40.4595 58.4636 40.4254 58.5185 40.3879 58.567C39.4089 59.7659 38.0887 60.2539 36.523 60.2313C35.967 60.2248 35.4075 60.2087 34.8549 60.2377C34.1659 60.2733 33.5246 60.4736 32.9822 60.8873C32.8048 61.023 32.6684 61.204 32.5115 61.3623C32.7707 61.3462 33.1493 61.2331 33.3642 61.1975C33.9373 61.1006 34.8038 60.7774 35.3189 61.0392C34.8413 61.3365 34.1045 61.8277 33.5928 62.0636C32.7229 62.4643 31.8019 62.4159 30.8809 62.1961C30.1543 62.0248 29.4243 62.0119 28.7012 62.222C28.2099 62.3641 27.746 62.558 27.2889 62.92C28.2952 62.739 29.2299 62.6647 30.2157 62.8683C30.1475 62.9264 30.1202 62.9555 30.0895 62.9749C29.6631 63.2011 29.2435 63.4338 28.8103 63.6471C28.1929 63.9476 27.5311 64.009 26.8591 63.8927C26.0438 63.7505 25.2388 63.5598 24.4235 63.4273C23.7788 63.3239 23.1409 63.4177 22.5371 63.6568C22.3495 63.7311 22.1892 63.8733 22.0186 63.9832L22.0562 64.0478C22.967 63.841 23.8675 63.8507 24.8022 64.1092C24.7408 64.1739 24.7203 64.2029 24.693 64.2191C23.7959 64.7652 22.8237 65.0335 21.7628 64.8234C21.0703 64.6877 20.3881 64.497 19.7059 64.316C18.952 64.1157 18.2049 63.9896 17.4135 64.3354C18.1538 64.4259 18.8565 64.5002 19.4807 64.8719C19.4091 64.943 19.3375 64.9818 19.2624 64.9979C19.0543 65.0432 18.8428 65.0787 18.6347 65.1239C17.7785 65.2985 16.953 65.2274 16.1616 64.8557C15.9467 64.7555 15.7318 64.6424 15.5033 64.581C15.1656 64.4906 14.8176 64.4421 14.4765 64.3774L14.4526 64.4712C21.1693 69.3768 28.7694 71.9136 37.2701 72.0719C37.021 71.5872 36.7788 71.1412 36.5571 70.6856C36.0079 69.5416 35.8169 68.3394 36.0284 67.0985C36.3866 64.985 37.5429 63.2819 39.2008 61.8891C40.6983 60.632 42.2709 59.4525 43.7991 58.2309C44.9827 57.284 46.1596 56.3275 47.3296 55.3677C48.2472 54.6147 49.1546 53.8488 50.0654 53.0862C51.2764 52.0714 52.5146 51.0793 53.6949 50.0323C55.2334 48.6685 56.6865 47.2272 58.051 45.7019C59.6508 43.9116 60.9403 41.9403 62.0387 39.8495C62.2843 39.3809 62.4889 38.8929 62.7107 38.4146C62.7346 38.5924 62.7209 38.7636 62.6902 38.9317C62.4003 40.5055 62.0216 42.0599 61.5475 43.5917C61.2916 44.4222 61.0938 45.2786 61.2439 46.135C61.3564 46.7748 61.2132 47.3307 61.0017 47.9124C60.7731 48.5393 60.5923 49.1824 60.3672 49.8093C60.2819 50.0517 60.1557 50.2876 60.0056 50.4976C59.6099 51.0406 58.8049 51.3476 58.1806 51.5964C56.359 52.3235 55.9975 53.335 55.8542 53.7357C56.4887 53.1993 57.0924 52.7372 57.9009 52.5691C57.6962 53.2445 56.3932 54.5016 55.1378 54.8054C54.4078 54.9831 53.7188 55.232 53.1184 55.6682C52.7227 55.9558 52.4464 56.3339 52.2179 56.7541C52.7637 56.3921 53.2822 55.9914 53.9678 55.8492C53.8825 56.0528 53.7836 56.2435 53.654 56.418C53.0024 57.3034 52.0439 57.7656 50.9967 58.0661C49.946 58.3666 49.025 58.8417 48.278 59.6043C48.2438 59.6367 48.2234 59.6819 48.1927 59.7207C48.834 59.2973 49.5094 58.9839 50.2803 58.8352C50.1746 59.0614 50.0449 59.2586 49.8983 59.4395C49.1376 60.3896 48.0392 60.8647 46.9271 61.3268C46.5075 61.5013 46.0948 61.7017 45.7127 61.944C45.2352 62.251 44.8941 62.6808 44.7951 63.0008C45.3273 62.5354 45.9276 62.2478 46.6269 62.041C46.47 62.2446 46.3336 62.39 46.2346 62.558C45.781 63.3142 45.1362 63.8442 44.2869 64.1803C43.4 64.5326 42.5506 64.9494 41.8138 65.5505C41.0872 66.1451 40.6983 66.9013 40.6437 67.7997C40.538 69.5545 41.6841 70.7308 43.2976 71.0249C44.3107 71.2091 45.2897 70.9538 46.2278 70.5951C47.2682 70.1944 48.121 69.5222 48.9534 68.8338C50.0756 67.9064 51.0069 66.8108 51.9381 65.7186C52.9001 64.5875 53.7972 63.408 54.7728 62.2898C56.4136 60.409 58.4672 59.53 61.0733 60.1052C62.2399 60.3638 63.2633 60.8421 64.0001 61.7792C64.024 61.8083 64.0615 61.8277 64.1365 61.8859C64.9552 61.0295 65.7671 60.186 66.5721 59.3329C66.6881 59.2101 66.7905 59.1487 66.9644 59.1907C67.7763 59.3781 68.5609 59.2683 69.325 58.9677C69.5126 58.8934 69.707 58.8126 69.9083 58.7932C74.1961 58.3925 76.6931 54.6083 77.4947 53.4158C78.7262 51.5932 80.1964 49.9547 81.4858 49.289C83.3654 48.3195 84.88 48.9788 84.9141 50.5332C84.9209 50.7853 84.8015 51.0309 84.7435 51.2765C84.8663 51.2409 84.9618 51.1827 85.0096 51.102C85.5724 50.168 85.3678 49.0337 84.5593 48.4326V48.4262Z" fill="white"/>
<path d="M22.2025 59.9857C23.9422 59.8758 25.6443 59.5397 27.3226 59.1035C28.3767 58.832 29.4171 58.4959 30.4541 58.1663C32.2382 57.604 33.9608 56.9027 35.6152 56.0657C36.8501 55.4388 38.044 54.7375 39.2584 54.0686C41.3119 52.9343 43.1505 51.535 44.863 49.9806C46.4423 48.549 47.7761 46.9235 48.9973 45.214C50.1059 43.6563 50.8598 41.9436 51.2965 40.1177C51.6171 38.7798 51.658 37.4193 51.4568 36.0556C51.4022 35.6775 51.1532 34.9374 51.1259 34.9439C51.1464 35.3187 51.1805 35.6968 51.1907 36.0717C51.2282 37.6067 51.0645 39.1191 50.5187 40.5734C49.8399 42.3831 48.9871 43.5982 47.3054 44.5967C46.0705 45.3303 45.2928 46.4484 45.3098 46.4646C45.9818 45.8247 46.7971 45.424 47.7079 45.1526C47.2064 45.8409 46.4116 47.0948 45.4087 47.5601C44.5491 47.9608 42.5195 48.3228 42.1477 49.0919C42.1613 49.1081 43.4132 48.8108 44.0647 48.6362C44.0306 48.7106 44.0272 48.7429 44.0068 48.7623C43.0346 49.7673 41.9157 50.5009 40.4011 50.5364C39.637 50.5558 38.8797 50.6689 38.1634 50.9242C37.795 51.0567 37.4436 51.2345 37.0855 51.3928C37.5664 51.354 38.0167 51.2409 38.4738 51.186C38.9309 51.1311 39.3982 51.1343 39.8587 51.1117C39.8042 51.2086 39.7394 51.27 39.6609 51.312C39.1253 51.619 38.5966 51.9357 38.0508 52.2169C37.7847 52.3558 37.4846 52.456 37.1878 52.5207C36.4135 52.6887 35.6391 52.5562 34.8648 52.498C34.2166 52.4496 33.5719 52.4108 32.9409 52.6241C33.664 52.6241 34.3497 52.776 35.0149 53.0474C34.5816 53.2413 34.1552 53.3997 33.722 53.5418C33.091 53.7487 32.4428 53.8618 31.7777 53.7681C31.1193 53.6776 30.4678 53.5418 29.8128 53.4223C29.0828 53.2898 28.3494 53.1864 27.6024 53.3221C27.6672 53.3479 29.881 53.6356 30.1403 54.0589C29.8947 54.1365 28.9805 54.2366 28.5131 54.2851C27.384 54.4047 26.3505 54.1655 25.3612 53.6356C24.7984 53.335 24.1844 53.112 23.5772 52.8988C23.3077 52.805 22.9973 52.8147 22.7039 52.7792V52.8341C23.3759 53.1605 24.0547 53.4869 24.7915 53.8424C24.6585 53.8941 24.6073 53.9264 24.5528 53.9329C24.1775 53.9652 23.8023 54.0072 23.4271 54.0169C22.7585 54.0331 22.0728 54.0524 21.4861 53.6905C21.0802 53.4417 20.6981 53.1444 20.3502 52.8277C19.7123 52.2492 18.9994 51.8065 18.1568 51.5609C17.9453 51.4995 17.7133 51.4865 17.495 51.451L17.478 51.535C17.6997 51.6417 17.9214 51.7451 18.1397 51.8517C18.7367 52.1426 19.3098 52.4657 19.7464 52.9634C19.8044 53.0313 19.8658 53.1056 19.8999 53.1864C19.9613 53.3383 19.8726 53.4352 19.7123 53.39C18.9107 53.1573 18.109 52.9278 17.3142 52.6822C16.7616 52.511 16.3079 52.1943 15.96 51.758C15.6734 51.396 15.4074 51.0147 15.1447 50.6366C14.6876 49.9709 14.1077 49.4312 13.3845 49.0305C13.1901 48.9206 12.7398 48.7914 12.7228 48.814C12.9377 49.0079 13.156 49.2018 13.3709 49.3989C13.961 49.9418 14.4966 50.517 14.6262 51.3282C14.6399 51.4154 14.6262 51.5059 14.6262 51.632C14.367 51.4348 14.1589 51.2636 13.9406 51.1117C13.4459 50.7627 12.9445 50.4201 12.4465 50.0775C11.7335 49.5863 11.3003 48.9271 11.1673 48.0998C11.0854 47.6054 10.949 47.1335 10.6522 46.7134C10.3895 46.3418 9.987 45.5597 9.66976 45.4887C10.1098 46.3127 10.294 47.1917 10.3588 48.1257C10.2974 48.0901 10.2667 48.0222 10.2224 47.9641C9.84714 47.4405 9.45485 46.93 9.10009 46.3935C8.68734 45.773 8.58159 45.0912 8.81355 44.3834C8.95682 43.9439 9.14785 43.5174 9.31159 43.0811C9.74481 41.6495 9.21607 40.541 9.19561 40.5443C9.27406 41.4459 8.90907 42.2473 8.59865 43.0617C8.56454 43.1522 8.43491 43.5012 8.38715 43.5755C8.34622 43.4947 8.24388 42.9615 8.22001 42.7773C8.10061 41.95 8.03239 41.126 8.41785 40.3407C8.60888 39.9529 8.84425 39.5845 9.0728 39.2128C9.36275 38.7346 9.622 38.2434 9.72434 37.6908C9.39345 38.1852 8.85449 38.7023 8.27117 39.0093C8.2473 38.9349 8.25412 38.4211 8.28141 38.2369C8.42127 37.3062 8.90565 36.5112 9.39345 35.7195C9.79597 35.0699 10.0757 34.4882 10.1337 33.7449C10.161 33.4024 10.0006 32.9338 9.77209 32.5654C9.77209 32.7431 9.77209 32.8498 9.77209 32.9532C9.74822 33.6157 9.30817 34.7758 8.89201 35.0925C8.585 34.1392 9.93583 30.9755 7.18983 30.4196C7.04656 30.3744 6.88964 30.3744 6.73614 30.355C7.18642 30.6135 7.6094 30.8656 7.89935 31.3535C7.59235 31.3374 7.35015 31.3471 7.11819 31.3115C6.35068 31.192 5.58998 31.0465 4.82247 30.9302C4.17434 30.8333 3.57056 30.9722 3.01113 31.2986C3.71724 31.1564 4.39266 31.2307 5.08513 31.5345C4.97938 31.5798 4.91798 31.5992 4.85658 31.6282C4.36196 31.8641 4.12999 31.9255 3.65925 32.197C3.25673 32.4264 2.63248 32.4943 2.17539 32.5977C1.88202 32.6656 1.00194 32.9887 0.882546 33.7029C1.37717 33.2214 2.04917 33.2311 2.69389 33.1148C2.53697 33.3442 2.37323 33.5704 2.16515 33.7482C1.91614 33.9582 1.63642 34.136 1.3567 34.3105C0.353813 34.931 -0.0350623 35.8196 0.00246077 36.9087C0.0126943 37.1511 0.0195167 37.3967 0.043395 37.639C0.166198 38.9769 0.248066 40.3213 0.425448 41.6527C0.71881 43.8373 1.32259 45.9637 2.13786 48.019C3.17145 50.6205 4.60074 53.0151 6.57581 55.0898C8.29846 56.8963 10.2872 58.3537 12.7535 59.1487C14.4625 59.7013 16.2124 60.1053 18.0203 60.1279C19.4121 60.144 20.8073 60.0729 22.199 59.9857H22.2025ZM17.2562 57.6395C16.3284 57.6977 15.4517 57.52 14.7115 56.9803C14.3738 56.7347 14.1214 56.3792 13.8587 56.0528C13.4835 55.581 13.1594 55.0704 12.7671 54.6147C12.3782 54.1656 11.8734 53.8424 11.2082 53.6485C11.4743 53.8747 11.6892 54.0524 11.9007 54.2334C12.4124 54.6761 12.7296 55.2384 13.0025 55.8298C13.0264 55.8848 13.0264 55.9849 12.9923 56.0205C12.9547 56.056 12.849 56.0593 12.791 56.0334C11.3003 55.4097 10.2497 54.4596 10.1371 52.8115C10.1098 52.4334 10.0211 52.0585 9.93583 51.6869C9.90172 51.5382 9.80621 51.3993 9.70387 51.2765C9.73116 51.8356 9.76186 52.3946 9.78574 52.9537C9.78574 53.028 9.76527 53.1023 9.75163 53.1767C9.05916 52.8438 8.77262 51.758 8.75897 50.9856C8.74874 50.4847 8.8886 49.5896 8.71463 48.759C8.74874 48.7494 8.8886 48.759 9.00799 48.9853C9.48556 49.903 10.3349 50.4815 11.1775 51.0503C13.8757 52.8664 16.9015 53.949 20.1285 54.5533C21.7385 54.8539 23.3691 54.9702 25.0065 54.9379C25.7808 54.925 27.1282 55.1803 27.541 55.4C27.4898 55.3774 26.8417 55.4937 26.2618 55.5939C26.04 55.6327 25.0167 55.8395 25.0576 55.9688C25.0747 56.027 25.5386 56.1174 26.0776 56.0722C26.4153 56.0431 26.7564 55.972 27.0907 55.9365C27.4966 55.8977 27.9196 55.8169 28.3255 55.8848C28.5302 55.9203 28.7519 56.0173 28.7997 56.2306C28.8065 56.2661 28.8202 56.3049 28.8099 56.3372C28.6666 56.3243 28.537 56.2661 28.4006 56.2306C28.2641 56.195 28.1243 56.1853 27.9844 56.1982C27.5 56.2402 27.0873 56.544 26.6438 56.6991C25.791 56.9964 24.8768 56.9577 24.0309 56.6668C23.0143 56.3178 21.991 56.292 20.9608 56.6183C20.9233 56.6313 20.8857 56.6442 20.8482 56.6733C21.9125 56.7121 23.2565 57.1289 23.2599 57.1548C23.1269 57.2097 22.9939 57.2711 22.8574 57.3228C21.9705 57.6654 21.0495 57.8787 20.1012 57.6557C19.6202 57.5426 19.1529 57.3293 18.7162 57.0999C17.9658 56.6991 17.2255 56.2887 16.3489 56.2112C15.96 56.1756 15.5677 56.2047 15.1549 56.2564C15.2607 56.3081 15.363 56.3695 15.4722 56.4051C16.076 56.6054 16.69 56.7864 17.2869 57.0061C17.5496 57.1031 18.0135 57.4844 18.0101 57.5232C17.7611 57.5652 17.5121 57.6298 17.2631 57.646L17.2562 57.6395Z" fill="white"/>
<path d="M53.0395 22.4729C53.3908 22.4245 53.6808 22.5376 53.8786 22.8284C54.1481 23.2227 54.4074 23.6234 54.6905 24.0112C54.9941 24.4313 55.2977 24.8547 55.6422 25.2457C56.014 25.6658 56.5087 25.8144 57.0749 25.6399C57.358 25.5527 57.6446 25.459 57.9175 25.3426C59.8141 24.5347 61.7858 23.8658 63.6039 22.9092C65.0878 22.1304 65.0878 21.6004 64.5181 20.6471C64.0644 19.8844 61.9802 17.0955 61.4651 16.3684C60.9125 15.5896 60.2814 15.1824 59.3979 15.512C58.8214 15.7253 58.245 15.9031 57.6753 16.1325C54.6257 17.3573 51.5761 18.5821 48.5538 19.8586C45.9681 20.9509 43.3483 21.9753 40.8786 23.297C40.3465 23.5814 39.845 23.9304 39.3572 24.2859C39.0127 24.5347 38.8217 24.9031 38.9104 25.3168C38.9854 25.6755 39.1219 26.0342 39.2924 26.3638C39.4357 26.6417 39.4493 26.8615 39.2856 27.0909C39.2651 27.1103 34.718 31.6831 34.9432 36.0296C34.9875 36.2849 35.3081 36.6016 35.7618 36.537C35.7618 36.537 36.1951 34.3782 38.0132 31.6863C38.542 30.9559 39.1253 30.2611 39.6983 29.5631C39.9508 29.2529 40.2441 28.9717 40.5273 28.6841L40.5341 28.6777C40.5511 28.6583 40.5716 28.6389 40.5887 28.6227C40.7217 28.4838 40.8445 28.4967 40.9639 28.6518C41.23 28.9911 41.4994 29.3272 41.7758 29.6568C42.168 30.1287 42.5501 30.6069 42.9731 31.0529C43.2937 31.3922 43.7031 31.6734 44.1977 31.6346C44.6036 31.6023 45.0198 31.4762 45.3882 31.3017C47.2064 30.4454 49.0075 29.5631 50.812 28.6873C51.5181 28.3448 52.2379 28.0152 52.9269 27.6403C53.5 27.3268 53.7968 26.8421 53.7592 26.1828C53.732 25.7304 53.5819 25.3232 53.3397 24.9451C53.0224 24.4539 52.6847 23.9756 52.3675 23.4844C52.3061 23.3907 52.2788 23.255 52.2958 23.1484C52.347 22.8123 52.6608 22.5279 53.0429 22.4729H53.0395ZM54.6496 19.3318C56.1198 18.5433 57.6787 17.9358 59.2478 17.3573C59.4525 17.283 59.6777 17.2603 59.8926 17.2119C60.2371 17.2086 60.5202 17.3056 60.7385 17.5641C61.5674 18.5465 62.3622 19.5516 63.007 20.6568C63.1707 20.9379 63.0752 21.2449 62.7204 21.4647C62.393 21.6683 62.0552 21.8686 61.7005 22.0238C60.6908 22.4665 59.6742 22.8898 58.6543 23.3132C58.2177 23.4941 57.7674 23.6525 57.3239 23.8173C56.9658 23.9498 56.5257 23.869 56.3006 23.5426C55.9867 23.087 55.6695 22.6378 55.3454 22.1886C54.9975 21.7071 54.6359 21.232 54.288 20.7537C53.8923 20.2076 54.0321 19.6679 54.6564 19.335L54.6496 19.3318ZM51.0644 26.7128C49.9865 27.3236 48.8608 27.818 47.7351 28.3286C47.0324 28.6486 46.3365 28.975 45.6236 29.2723C44.6753 29.6019 44.3341 29.8604 43.3074 28.4547C42.6695 27.5757 42.0657 26.6708 41.4756 25.7595C41.2607 25.4266 41.3664 25.0776 41.6973 24.8385C41.9565 24.6511 42.226 24.4766 42.5057 24.3247C44.2318 23.394 45.9988 22.5408 47.8306 21.8072C47.9022 21.7782 47.9739 21.7523 48.0455 21.7264C48.6766 21.5035 48.8642 21.5519 49.2462 22.0819C49.8364 22.8963 50.4299 23.7107 51.003 24.538C51.9854 25.8565 51.9445 26.2119 51.061 26.7128H51.0644ZM51.4635 21.8072C51.136 21.9365 50.8563 21.8525 50.7096 21.636C50.5425 21.3904 50.5766 21.0737 50.8154 20.8345C51.1497 20.5049 51.5693 20.3401 51.9718 20.311C52.347 20.3045 52.579 20.45 52.6677 20.6923C52.7529 20.9315 52.6881 21.1738 52.4357 21.3225C52.1253 21.5067 51.8012 21.6715 51.4669 21.8072H51.4635Z" fill="white"/>
<path d="M59.8451 63.8569C59.1492 63.8828 58.5455 64.1381 58.0099 64.5323C57.1503 65.1657 56.5329 65.9866 56.0382 66.9011C56.0041 66.9657 55.9666 67.0304 55.9359 67.0982C55.9018 67.1629 55.8711 67.2275 55.8404 67.2921C56.2088 66.8397 56.6352 66.4778 57.1946 66.2677C58.0474 65.9446 58.9105 65.8088 59.7803 66.2031C60.9265 66.7234 61.4074 67.8221 61.0766 68.9952C60.8958 69.6318 60.4318 70.1004 59.9236 70.5141C59.5586 70.8114 59.139 71.0408 58.7945 71.2703C60.4728 70.9503 61.4518 70.3428 62.1716 69.1342C62.8401 68.0096 63.0926 66.8656 62.557 65.6214C62.1272 64.6261 61.0117 63.8214 59.8485 63.8634L59.8451 63.8569Z" fill="white"/>
</svg>
