<?xml version="1.0" encoding="UTF-8"?>
<svg version="1.1" xmlns="http://www.w3.org/2000/svg" width="140" height="140">
<path d="M0 0 C14.2153918 -0.06496493 28.41347192 0.17552594 42.625 0.5 C44.80728766 0.54835825 46.98957932 0.59653642 49.171875 0.64453125 C54.44796442 0.76095131 59.72400068 0.87956948 65 1 C66.97844298 9.78262965 68.06311587 18.66251167 69.1640625 27.5859375 C69.36273438 29.17635188 69.56166262 30.76673425 69.76083374 32.35708618 C70.17491338 35.66990167 70.58647188 38.98301715 70.99609375 42.29638672 C71.52089067 46.54036101 72.05119734 50.78362472 72.58326149 55.02669334 C72.99348706 58.30181732 73.40125786 61.57724317 73.80823898 64.85277176 C74.00294928 66.41813945 74.19831964 67.98342518 74.39436722 69.54862595 C74.66719787 71.73052916 74.93682545 73.91280465 75.20556641 76.09521484 C75.35941803 77.33524261 75.51326965 78.57527039 75.67178345 79.85287476 C76 83 76 83 76 87 C47.62 87 19.24 87 -10 87 C-8.875 71.25 -8.875 71.25 -8.06030273 64.70947266 C-7.97237457 63.99541763 -7.88444641 63.28136261 -7.79385376 62.54566956 C-7.51049969 60.25136374 -7.22212823 57.957722 -6.93359375 55.6640625 C-6.73292511 54.04743295 -6.53257813 52.43076344 -6.33253479 50.8140564 C-5.81130448 46.60852564 -5.28577762 42.40354323 -4.75927734 38.19866943 C-4.22032672 33.88798452 -3.6855473 29.57678227 -3.15039062 25.265625 C-2.10428487 16.84324539 -1.05362821 8.42144185 0 0 Z " fill="#F0B742" transform="translate(37,26)"/>
<path d="M0 0 C14.2153918 -0.06496493 28.41347192 0.17552594 42.625 0.5 C44.80728766 0.54835825 46.98957932 0.59653642 49.171875 0.64453125 C54.44796442 0.76095131 59.72400068 0.87956948 65 1 C66.97844298 9.78262965 68.06311587 18.66251167 69.1640625 27.5859375 C69.36273438 29.17635188 69.56166262 30.76673425 69.76083374 32.35708618 C70.17491338 35.66990167 70.58647188 38.98301715 70.99609375 42.29638672 C71.52089067 46.54036101 72.05119734 50.78362472 72.58326149 55.02669334 C72.99348706 58.30181732 73.40125786 61.57724317 73.80823898 64.85277176 C74.00294928 66.41813945 74.19831964 67.98342518 74.39436722 69.54862595 C74.66719787 71.73052916 74.93682545 73.91280465 75.20556641 76.09521484 C75.35941803 77.33524261 75.51326965 78.57527039 75.67178345 79.85287476 C76 83 76 83 76 87 C47.62 87 19.24 87 -10 87 C-8.875 71.25 -8.875 71.25 -8.06030273 64.70947266 C-7.97237457 63.99541763 -7.88444641 63.28136261 -7.79385376 62.54566956 C-7.51049969 60.25136374 -7.22212823 57.957722 -6.93359375 55.6640625 C-6.73292511 54.04743295 -6.53257813 52.43076344 -6.33253479 50.8140564 C-5.81130448 46.60852564 -5.28577762 42.40354323 -4.75927734 38.19866943 C-4.22032672 33.88798452 -3.6855473 29.57678227 -3.15039062 25.265625 C-2.10428487 16.84324539 -1.05362821 8.42144185 0 0 Z M3 10 C2.86867676 11.00232666 2.73735352 12.00465332 2.60205078 13.03735352 C2.42485836 14.38037818 2.24760923 15.72339536 2.0703125 17.06640625 C1.98434814 17.72370728 1.89838379 18.3810083 1.80981445 19.05822754 C1.01495872 25.06400955 0.04446275 31.03322879 -1 37 C-1.33 37 -1.66 37 -2 37 C-2.02505615 37.74048584 -2.0501123 38.48097168 -2.07592773 39.24389648 C-2.1929172 42.64189649 -2.31517147 46.03968817 -2.4375 49.4375 C-2.47681641 50.60216797 -2.51613281 51.76683594 -2.55664062 52.96679688 C-2.76385761 58.62541442 -3.09178634 64.19181201 -3.79711914 69.80883789 C-4.17269236 73.86511903 -4.07645642 77.93081941 -4 82 C19.99967356 83.1768228 43.97841699 83.10604475 68 83 C68 82.34 68 81.68 68 81 C68.66 81 69.32 81 70 81 C70.28802271 72.26331123 69.97583883 63.54977173 68 55 C67.34 54.67 66.68 54.34 66 54 C65.62109375 52.07421875 65.62109375 52.07421875 65.4375 49.6875 C65.19374908 46.67792231 64.79677576 43.91340145 64 41 C62.87096774 36.25806452 62.87096774 36.25806452 64 34 C64.26747334 28.65053327 63.76084454 25.07537545 62 20 C61.70936965 17.61921991 61.50408138 15.24841466 61.34375 12.85546875 C61.2303125 12.24316406 61.116875 11.63085938 61 11 C58.40672157 9.70336078 56.53591932 9.87996431 53.63232422 9.88647461 C51.95080765 9.88658791 51.95080765 9.88658791 50.23532104 9.88670349 C49.02071198 9.89186478 47.80610291 9.89702606 46.5546875 9.90234375 C44.69446457 9.90446617 44.69446457 9.90446617 42.79666138 9.90663147 C39.49881867 9.91128904 36.20102454 9.92027561 32.90319824 9.93133545 C29.53833613 9.94156269 26.17346692 9.94613191 22.80859375 9.95117188 C16.20571007 9.96221731 9.60285901 9.97896753 3 10 Z " fill="#C1A665" transform="translate(37,26)"/>
<path d="M0 0 C0.99 0.495 0.99 0.495 2 1 C1.95875 2.0725 1.9175 3.145 1.875 4.25 C1.99449255 7.83477635 2.39822969 8.99668067 4 12 C4.125 14.75 4.125 14.75 4 17 C4.66 17.33 5.32 17.66 6 18 C7.97583883 26.54977173 8.28802271 35.26331123 8 44 C7.34 44 6.68 44 6 44 C5.505 44.99 5.505 44.99 5 46 C-18.37005836 46.42277493 -41.6655194 45.13876332 -65 44 C-64.34 36.74 -63.68 29.48 -63 22 C-61 26 -61 26 -60 29 C-57.68970915 29.74259349 -55.354248 30.411438 -53 31 C-52.67 31.33 -52.34 31.66 -52 32 C-50.65252916 32.23075082 -49.29622435 32.41153063 -47.9375 32.5625 C-46.638125 32.706875 -45.33875 32.85125 -44 33 C-44.54723683 36.37462715 -45.0549 38.08235 -47 41 C-41.23465663 40.8384235 -38.77509314 39.42246174 -34.81396484 35.29052734 C-33.94698975 34.34234131 -33.94698975 34.34234131 -33.0625 33.375 C-31.82865489 32.08158326 -30.59299533 30.7898948 -29.35546875 29.5 C-28.77200684 28.88511719 -28.18854492 28.27023438 -27.58740234 27.63671875 C-25.77277344 25.76571411 -23.87178269 24.04945089 -21.875 22.375 C-17.70979111 18.86032265 -13.92781545 14.98093994 -10.12255859 11.08544922 C-7.83802493 8.76187653 -5.72319792 6.81546528 -3 5 C-1.94895617 3.36504293 -0.94011682 1.70116376 0 0 Z " fill="#F3B83E" transform="translate(99,63)"/>
<path d="M0 0 C0.969375 0.185625 1.93875 0.37125 2.9375 0.5625 C1.62792205 3.94163187 0.18350633 7.18902588 -1.4453125 10.42578125 C-2.11240234 11.75512695 -2.11240234 11.75512695 -2.79296875 13.11132812 C-3.25316406 14.02333984 -3.71335938 14.93535156 -4.1875 15.875 C-4.65542969 16.80634766 -5.12335938 17.73769531 -5.60546875 18.69726562 C-6.75600346 20.98659489 -7.90840035 23.27496641 -9.0625 25.5625 C-8.48282471 25.58755615 -7.90314941 25.6126123 -7.3059082 25.63842773 C-4.66207893 25.75496234 -2.01855591 25.87742682 0.625 26 C1.99301758 26.05897461 1.99301758 26.05897461 3.38867188 26.11914062 C4.27490234 26.16103516 5.16113281 26.20292969 6.07421875 26.24609375 C6.88592529 26.28275146 7.69763184 26.31940918 8.53393555 26.35717773 C11.05894485 26.57287431 13.46350697 27.02149452 15.9375 27.5625 C14.58488766 30.66949073 13.18506433 32.43789092 10.5625 34.5625 C6.81930513 37.72039531 3.37014481 41.07704527 -0.0625 44.5625 C-3.97216342 48.5221155 -7.93167747 52.31615813 -12.19921875 55.89453125 C-14.33147271 57.80327851 -16.19633642 59.88695175 -18.125 62 C-21.4441157 65.41113079 -21.4441157 65.41113079 -24.12109375 66.06640625 C-26.0625 66.0625 -26.0625 66.0625 -29.0625 65.5625 C-27.31503949 60.79497186 -24.9492847 56.40604898 -22.5625 51.9375 C-22.15902344 51.174375 -21.75554688 50.41125 -21.33984375 49.625 C-19.67902474 46.50068701 -18.02813046 43.51094569 -16.0625 40.5625 C-17.7640625 40.624375 -17.7640625 40.624375 -19.5 40.6875 C-27.06342134 40.71181968 -34.57446806 39.52536978 -42.0625 38.5625 C-42.0625 37.9025 -42.0625 37.2425 -42.0625 36.5625 C-40.76953125 35.29296875 -40.76953125 35.29296875 -38.875 33.75 C-34.89273229 30.37603606 -31.22346953 26.77520349 -27.5625 23.0625 C-23.49507061 18.94747118 -19.40031754 14.97537066 -14.95703125 11.26171875 C-12.64375075 9.18692077 -10.6064953 6.90851171 -8.5 4.625 C-3.96912101 -0.01600452 -3.96912101 -0.01600452 0 0 Z " fill="#D72558" transform="translate(81.0625,38.4375)"/>
<path d="M0 0 C14.2153918 -0.06496493 28.41347192 0.17552594 42.625 0.5 C44.80728766 0.54835825 46.98957932 0.59653642 49.171875 0.64453125 C54.44796442 0.76095131 59.72400068 0.87956948 65 1 C66.97844298 9.78262965 68.06311587 18.66251167 69.1640625 27.5859375 C69.36273438 29.17635188 69.56166262 30.76673425 69.76083374 32.35708618 C70.17491338 35.66990167 70.58647188 38.98301715 70.99609375 42.29638672 C71.52089067 46.54036101 72.05119734 50.78362472 72.58326149 55.02669334 C72.99348706 58.30181732 73.40125786 61.57724317 73.80823898 64.85277176 C74.00294928 66.41813945 74.19831964 67.98342518 74.39436722 69.54862595 C74.66719787 71.73052916 74.93682545 73.91280465 75.20556641 76.09521484 C75.35941803 77.33524261 75.51326965 78.57527039 75.67178345 79.85287476 C76 83 76 83 76 87 C71.38 87 66.76 87 62 87 C62 86.67 62 86.34 62 86 C66.95 85.505 66.95 85.505 72 85 C72.39174919 72.65990044 70.44249289 60.52685003 68.5 48.37109375 C67.81003675 43.71923212 67.28033688 39.0532068 66.75439453 34.38037109 C66.23011303 29.77603749 65.58732583 25.2049541 64.875 20.625 C63.99850008 14.70862555 63.780627 8.97182051 64 3 C62.35 3 60.7 3 59 3 C58.67 4.32 58.34 5.64 58 7 C49.43742688 7.88519242 40.95063936 8.15740505 32.34448242 8.13037109 C30.30445017 8.12497872 28.2646353 8.13037037 26.22460938 8.13671875 C19.39807285 8.13002935 12.76382153 7.93962681 6 7 C6 5.68 6 4.36 6 3 C5.01 3 4.02 3 3 3 C2.8453125 4.9490625 2.8453125 4.9490625 2.6875 6.9375 C2.30397583 10.82342772 1.72971998 14.6300866 1.00631714 18.46711731 C-0.89759163 28.59155904 -2.15538608 38.76124146 -3.30761719 48.99487305 C-3.62666898 51.82731667 -3.953336 54.65880431 -4.28125 57.49023438 C-4.49262682 59.333283 -4.70357925 61.17638036 -4.9140625 63.01953125 C-5.05625717 64.25749199 -5.05625717 64.25749199 -5.20132446 65.52046204 C-5.92967713 72.01121199 -6.4569011 78.48281316 -7 85 C23.195 85.495 23.195 85.495 54 86 C54 86.33 54 86.66 54 87 C32.88 87 11.76 87 -10 87 C-8.875 71.25 -8.875 71.25 -8.06030273 64.70947266 C-7.97237457 63.99541763 -7.88444641 63.28136261 -7.79385376 62.54566956 C-7.51049969 60.25136374 -7.22212823 57.957722 -6.93359375 55.6640625 C-6.73292511 54.04743295 -6.53257813 52.43076344 -6.33253479 50.8140564 C-5.81130448 46.60852564 -5.28577762 42.40354323 -4.75927734 38.19866943 C-4.22032672 33.88798452 -3.6855473 29.57678227 -3.15039062 25.265625 C-2.10428487 16.84324539 -1.05362821 8.42144185 0 0 Z " fill="#010E1B" transform="translate(37,26)"/>
<path d="M0 0 C0.99 0 1.98 0 3 0 C3 1.32 3 2.64 3 4 C8.47688475 4.02496476 13.95373541 4.04298372 19.43066406 4.05493164 C21.28874286 4.05991956 23.14681782 4.06671228 25.00488281 4.07543945 C35.0495734 4.12139202 45.00302463 4.14210679 55 3 C55.33 2.01 55.66 1.02 56 0 C57.65 0 59.3 0 61 0 C61.90041311 8.02332397 62.11547323 15.92970447 62 24 C59 22 59 22 58.3125 19.9375 C58.03775854 17.3549303 57.96873774 14.90896001 57.98046875 12.31640625 C57.98328857 11.5076001 57.9861084 10.69879395 57.98901367 9.86547852 C57.9944519 8.94206665 57.9944519 8.94206665 58 8 C57.30286896 8.00222061 56.60573792 8.00444122 55.88748169 8.00672913 C49.32470762 8.02674798 42.76194204 8.04198229 36.19914436 8.05181217 C32.82496974 8.05703565 29.45082029 8.06412361 26.07666016 8.07543945 C22.19953741 8.08752436 18.3224506 8.09323263 14.4453125 8.09765625 C13.23070343 8.10281754 12.01609436 8.10797882 10.76467896 8.11329651 C9.08316238 8.11340981 9.08316238 8.11340981 7.36767578 8.11352539 C6.37728302 8.115746 5.38689026 8.11796661 4.3664856 8.12025452 C2 8 2 8 0 7 C-0.99 18.88 -1.98 30.76 -3 43 C-3.33 43 -3.66 43 -4 43 C-5.29469349 31.41015346 -4.44658738 21.37548806 -2 10 C-1.60214425 7.97956386 -1.20592713 5.95880316 -0.8125 3.9375 C-0.54379565 2.62456249 -0.27397321 1.31184817 0 0 Z " fill="#E4BF6E" transform="translate(40,29)"/>
<path d="M0 0 C1.97844298 8.78262965 3.06311587 17.66251167 4.1640625 26.5859375 C4.36273438 28.17635188 4.56166262 29.76673425 4.76083374 31.35708618 C5.17491338 34.66990167 5.58647188 37.98301715 5.99609375 41.29638672 C6.52089067 45.54036101 7.05119734 49.78362472 7.58326149 54.02669334 C7.99348706 57.30181732 8.40125786 60.57724317 8.80823898 63.85277176 C9.00294928 65.41813945 9.19831964 66.98342518 9.39436722 68.54862595 C9.66719787 70.73052916 9.93682545 72.91280465 10.20556641 75.09521484 C10.35941803 76.33524261 10.51326965 77.57527039 10.67178345 78.85287476 C11 82 11 82 11 86 C6.38 86 1.76 86 -3 86 C-3 85.67 -3 85.34 -3 85 C1.95 84.505 1.95 84.505 7 84 C7.39174919 71.65990044 5.44249289 59.52685003 3.5 47.37109375 C2.81003675 42.71923212 2.28033688 38.0532068 1.75439453 33.38037109 C1.23011303 28.77603749 0.58732583 24.2049541 -0.125 19.625 C-1.00149992 13.70862555 -1.219373 7.97182051 -1 2 C-2.98 2 -4.96 2 -7 2 C-7 2.66 -7 3.32 -7 4 C-18.24320327 5.45073591 -29.4519658 5.14571945 -40.75 4.625 C-41.53697266 4.59422363 -42.32394531 4.56344727 -43.13476562 4.53173828 C-48.76614644 4.23385356 -48.76614644 4.23385356 -51 2 C-49.70707031 2.02320313 -48.41414063 2.04640625 -47.08203125 2.0703125 C-38.31477849 2.17852931 -30.03325305 2.05029011 -21.38671875 0.4453125 C-14.30982884 -0.48521282 -7.1233898 -0.14390686 0 0 Z " fill="#1F1707" transform="translate(102,27)"/>
<path d="M0 0 C0.33 0 0.66 0 1 0 C0.58552675 5.22236297 -0.02268762 10.31682156 -0.99368286 15.46711731 C-2.89759163 25.59155904 -4.15538608 35.76124146 -5.30761719 45.99487305 C-5.62666898 48.82731667 -5.953336 51.65880431 -6.28125 54.49023438 C-6.49262682 56.333283 -6.70357925 58.17638036 -6.9140625 60.01953125 C-7.05625717 61.25749199 -7.05625717 61.25749199 -7.20132446 62.52046204 C-7.92967713 69.01121199 -8.4569011 75.48281316 -9 82 C21.195 82.495 21.195 82.495 52 83 C52 83.33 52 83.66 52 84 C30.88 84 9.76 84 -12 84 C-10.875 68.25 -10.875 68.25 -10.15209961 62.44384766 C-9.99200912 61.14355621 -9.83191864 59.84326477 -9.66697693 58.50357056 C-9.49551166 57.14039125 -9.32396549 55.77722212 -9.15234375 54.4140625 C-8.974096 52.97679481 -8.79616954 51.53948724 -8.61854553 50.10214233 C-8.15649094 46.37008223 -7.690157 42.63856976 -7.22283936 38.90716553 C-6.74421162 35.07906503 -6.2697578 31.25044734 -5.79492188 27.421875 C-4.86729814 19.94741287 -3.93513967 12.47352594 -3 5 C-2.34 5 -1.68 5 -1 5 C-0.67 3.35 -0.34 1.7 0 0 Z " fill="#2F290D" transform="translate(39,29)"/>
<path d="M0 0 C0.33 0 0.66 0 1 0 C1.06015301 3.60409088 1.09428647 7.20804768 1.125 10.8125 C1.14175781 11.79798828 1.15851562 12.78347656 1.17578125 13.79882812 C1.23875658 23.78041718 0.06750332 32.85871842 -1 43 C22.43 43 45.86 43 70 43 C70 43.33 70 43.66 70 44 C60.77560526 44.85243148 51.64736797 45.13537461 42.38671875 45.09765625 C41.03766432 45.09578475 39.68860919 45.09436432 38.33955383 45.09336853 C34.83637523 45.08960086 31.33323994 45.07982176 27.83007812 45.06866455 C24.23633408 45.05832476 20.64258285 45.05384435 17.04882812 45.04882812 C10.03253467 45.03819261 3.0162702 45.0211879 -4 45 C-4.0960414 38.42168838 -3.95630294 32.01493746 -3.125 25.48828125 C-3.03621582 24.74918015 -2.94743164 24.01007904 -2.85595703 23.24858093 C-2.57673624 20.93576237 -2.28856526 18.62416918 -2 16.3125 C-1.80669199 14.72468227 -1.61397925 13.13679195 -1.421875 11.54882812 C-0.95476771 7.69834841 -0.47964223 3.84893752 0 0 Z " fill="#E5BA51" transform="translate(34,65)"/>
<path d="M0 0 C0.33 0 0.66 0 1 0 C2.34751781 8.11377748 3.38456336 16.21462595 4.24511719 24.39160156 C4.72435417 28.83732959 5.33443859 33.22123891 6.125 37.625 C6.93601431 42.17428339 7.17748917 46.38528157 7 51 C6.67 50.34 6.34 49.68 6 49 C5.34 49 4.68 49 4 49 C3.04738513 44.23692563 2.91666643 39.8333472 3 35 C2.01 34.67 1.02 34.34 0 34 C0.04125 33.0925 0.0825 32.185 0.125 31.25 C0.22809662 28.11243695 0.22809662 28.11243695 -1 26 C-2.35439668 23.29120665 -2.06501451 20.99066732 -2 18 C-2.33 17.34 -2.66 16.68 -3 16 C-2.6953125 14.08203125 -2.6953125 14.08203125 -2.125 11.8125 C-1.18295591 7.87882942 -0.51202241 4.01084221 0 0 Z " fill="#E6BD60" transform="translate(102,46)"/>
<path d="M0 0 C0.33 0 0.66 0 1 0 C1.01417969 1.24136719 1.02835938 2.48273438 1.04296875 3.76171875 C1.089882 5.40368243 1.13812932 7.04560837 1.1875 8.6875 C1.19330078 9.50412109 1.19910156 10.32074219 1.20507812 11.16210938 C1.36698015 15.60542057 1.50383577 17.42320908 4.5 20.90625 C5.7375 21.94265625 5.7375 21.94265625 7 23 C7.8125 25.8125 7.8125 25.8125 8 28 C6.35 28.33 4.7 28.66 3 29 C2.67 28.01 2.34 27.02 2 26 C1.86722656 27.13179687 1.73445313 28.26359375 1.59765625 29.4296875 C1.4194658 30.91148179 1.24106971 32.39325136 1.0625 33.875 C0.97548828 34.62136719 0.88847656 35.36773437 0.79882812 36.13671875 C0.11328125 41.7734375 0.11328125 41.7734375 -1 44 C0.918125 43.98259766 0.918125 43.98259766 2.875 43.96484375 C4.58333186 43.95545731 6.29166532 43.94635803 8 43.9375 C8.83917969 43.92912109 9.67835937 43.92074219 10.54296875 43.91210938 C15.79319339 43.89175967 20.80455662 44.23631793 26 45 C26 45.33 26 45.66 26 46 C12.14 45.505 12.14 45.505 -2 45 C-2 39.11813839 -1.96624528 34.17669054 -1.25830078 28.50439453 C-0.7079363 23.16825194 -0.61840702 17.79649982 -0.4375 12.4375 C-0.39431641 11.23802734 -0.35113281 10.03855469 -0.30664062 8.80273438 C-0.20143198 5.86858207 -0.09929117 2.9343575 0 0 Z " fill="#EFC154" transform="translate(35,63)"/>
<path d="M0 0 C0 3.20395416 -0.74335022 5.09399739 -2 8 C-1.2265625 8.06058594 -0.453125 8.12117188 0.34375 8.18359375 C6.25249543 8.65892599 12.12508141 9.20914557 18 10 C18 10.66 18 11.32 18 12 C16.52999567 13.27400375 15.05484219 14.5435008 13.53515625 15.7578125 C11.90933658 17.07336124 10.43797979 18.48213245 9 20 C9 17 9 17 10 14 C0.595 12.515 0.595 12.515 -9 11 C-7.25323081 7.50646162 -6.08594785 5.86054237 -3.375 3.25 C-2.74335937 2.63640625 -2.11171875 2.0228125 -1.4609375 1.390625 C-0.73777344 0.70226563 -0.73777344 0.70226563 0 0 Z " fill="#EFAC43" transform="translate(64,61)"/>
<path d="M0 0 C0.495 1.485 0.495 1.485 1 3 C0.34 3.66 -0.32 4.32 -1 5 C-1 4.01 -1 3.02 -1 2 C-2.98 2 -4.96 2 -7 2 C-7 2.66 -7 3.32 -7 4 C-18.24320327 5.45073591 -29.4519658 5.14571945 -40.75 4.625 C-41.53697266 4.59422363 -42.32394531 4.56344727 -43.13476562 4.53173828 C-48.76614644 4.23385356 -48.76614644 4.23385356 -51 2 C-49.70707031 2.02320313 -48.41414063 2.04640625 -47.08203125 2.0703125 C-38.31477849 2.17852931 -30.03325305 2.05029011 -21.38671875 0.4453125 C-14.30982884 -0.48521282 -7.1233898 -0.14390686 0 0 Z " fill="#090C15" transform="translate(102,27)"/>
<path d="M0 0 C0.33 0.99 0.66 1.98 1 3 C2.32 3 3.64 3 5 3 C5 2.34 5 1.68 5 1 C5.57105469 1.03029297 6.14210938 1.06058594 6.73046875 1.09179688 C21.83141051 1.87205221 36.88015128 2.13053396 52 2 C52.33 1.34 52.66 0.68 53 0 C52.67 1.32 52.34 2.64 52 4 C43.43742688 4.88519242 34.95063936 5.15740505 26.34448242 5.13037109 C24.30445017 5.12497872 22.2646353 5.13037037 20.22460938 5.13671875 C13.39807285 5.13002935 6.76382153 4.93962681 0 4 C0 2.68 0 1.36 0 0 Z " fill="#332312" transform="translate(43,29)"/>
<path d="M0 0 C7.26694473 -0.02314782 14.53388154 -0.04092756 21.80085564 -0.05181217 C25.17503026 -0.05703565 28.54917971 -0.06412361 31.92333984 -0.07543945 C35.80046259 -0.08752436 39.6775494 -0.09323263 43.5546875 -0.09765625 C44.76929657 -0.10281754 45.98390564 -0.10797882 47.23532104 -0.11329651 C48.91683762 -0.11340981 48.91683762 -0.11340981 50.63232422 -0.11352539 C51.62271698 -0.115746 52.61310974 -0.11796661 53.6335144 -0.12025452 C56 0 56 0 58 1 C58.44332642 3.31804663 58.7814034 5.65674091 59.0625 8 C59.22405132 12.32759678 59.22405132 12.32759678 61 16 C61.04063832 17.66617115 61.042721 19.33388095 61 21 C60.34 21 59.68 21 59 21 C57.04978464 14.53991163 56.77737697 8.7281627 57 2 C55.72125 1.979375 54.4425 1.95875 53.125 1.9375 C52.40570313 1.92589844 51.68640625 1.91429687 50.9453125 1.90234375 C48.91814596 1.87350758 48.91814596 1.87350758 47 3 C45.54962893 3.08949417 44.09521371 3.1175844 42.64208984 3.11352539 C41.29091568 3.11341209 41.29091568 3.11341209 39.91244507 3.11329651 C38.93844757 3.10813522 37.96445007 3.10297394 36.9609375 3.09765625 C35.96494537 3.0962413 34.96895325 3.09482635 33.94277954 3.09336853 C30.75348947 3.08775936 27.56426894 3.0752053 24.375 3.0625 C22.21614685 3.05748618 20.05729259 3.05292307 17.8984375 3.04882812 C12.5989345 3.03778695 7.29947222 3.02103988 2 3 C0.78306124 5.43387753 0.68040104 7.41838846 0.4375 10.125 C0.35371094 11.03507812 0.26992188 11.94515625 0.18359375 12.8828125 C0.12300781 13.58148438 0.06242187 14.28015625 0 15 C-0.33 15 -0.66 15 -1 15 C-1.02715383 13.25008666 -1.04646551 11.50005055 -1.0625 9.75 C-1.07410156 8.77546875 -1.08570313 7.8009375 -1.09765625 6.796875 C-1.01135257 4.32513755 -0.6403827 2.36653536 0 0 Z " fill="#EABD54" transform="translate(40,36)"/>
<path d="M0 0 C0.33 0 0.66 0 1 0 C1.02936502 3.81248345 1.04692035 7.62493726 1.0625 11.4375 C1.07087891 12.50677734 1.07925781 13.57605469 1.08789062 14.67773438 C1.10476477 20.1955812 0.92586014 25.55011683 0.22485352 31.02319336 C-0.09948381 33.87461499 -0.09545362 36.69553483 -0.0625 39.5625 C-0.04896484 41.11130859 -0.04896484 41.11130859 -0.03515625 42.69140625 C-0.02355469 43.45324219 -0.01195312 44.21507812 0 45 C-1.32 45 -2.64 45 -4 45 C-4.38177795 35.31105878 -3.19695471 25.90119174 -2 16.3125 C-1.80669199 14.72468227 -1.61397925 13.13679195 -1.421875 11.54882812 C-0.95476771 7.69834841 -0.47964223 3.84893752 0 0 Z " fill="#DCC27F" transform="translate(34,65)"/>
<path d="M0 0 C1.65 0 3.3 0 5 0 C5 4.95 5 9.9 5 15 C3.11656068 11.23312136 2.77942165 9.97041037 3 6 C2.41419662 6.00222061 1.82839325 6.00444122 1.22483826 6.00672913 C-4.89119861 6.02891189 -11.00722398 6.04396072 -17.12329102 6.05493164 C-19.40356918 6.05994964 -21.68384414 6.0667655 -23.96411133 6.07543945 C-27.24821769 6.08761607 -30.53228137 6.09325375 -33.81640625 6.09765625 C-35.33712486 6.10539818 -35.33712486 6.10539818 -36.88856506 6.11329651 C-42.03859721 6.11370151 -46.92556445 5.89476014 -52 5 C-52 4.67 -52 4.34 -52 4 C-50.32212402 4.00785522 -50.32212402 4.00785522 -48.61035156 4.01586914 C-44.40577006 4.03415712 -40.20119198 4.04551777 -35.99658203 4.05493164 C-34.18700568 4.05991803 -32.37743326 4.06670954 -30.56787109 4.07543945 C-20.66333787 4.12197817 -10.85836736 4.1159229 -1 3 C-0.67 2.01 -0.34 1.02 0 0 Z " fill="#BD9E64" transform="translate(96,29)"/>
<path d="M0 0 C0.33 0 0.66 0 1 0 C1 6.6 1 13.2 1 20 C31.195 20.495 31.195 20.495 62 21 C62 21.33 62 21.66 62 22 C40.88 22 19.76 22 -2 22 C-0.875 6.25 -0.875 6.25 0 0 Z " fill="#1C1A04" transform="translate(29,91)"/>
<path d="M0 0 C0.33 0 0.66 0 1 0 C1 6.6 1 13.2 1 20 C4.2175 19.9690625 4.2175 19.9690625 7.5 19.9375 C12.79016164 19.93216179 17.77606509 20.24015492 23 21 C24.66630509 21.03471469 26.33414654 21.05205792 28 21 C27.67 21.66 27.34 22.32 27 23 C17.43 22.67 7.86 22.34 -2 22 C-1.34 14.74 -0.68 7.48 0 0 Z " fill="#EBB633" transform="translate(36,85)"/>
<path d="M0 0 C0.33 0.99 0.66 1.98 1 3 C2.32 3 3.64 3 5 3 C5 2.34 5 1.68 5 1 C5.7425 1.23396484 5.7425 1.23396484 6.5 1.47265625 C10.65954449 2.35006017 14.91719669 2.36014951 19.15625 2.51757812 C22.97255564 2.70625742 25.67192753 3.15971214 29 5 C25.85418698 5.02948491 22.70841037 5.04695916 19.5625 5.0625 C18.68400391 5.07087891 17.80550781 5.07925781 16.90039062 5.08789062 C11.18216923 5.10899107 5.67199185 4.73280057 0 4 C0 2.68 0 1.36 0 0 Z " fill="#715D3A" transform="translate(43,29)"/>
<path d="M0 0 C0.66 0 1.32 0 2 0 C3.44796872 8.73952546 4.29211698 17.13911833 4 26 C3.01 25.67 2.02 25.34 1 25 C1.01160156 24.10796875 1.02320312 23.2159375 1.03515625 22.296875 C1.04417969 21.12640625 1.05320312 19.9559375 1.0625 18.75 C1.07410156 17.58984375 1.08570312 16.4296875 1.09765625 15.234375 C1.01662277 12.55054603 0.69177305 10.55091313 0 8 C-0.12205329 5.32459184 -0.04467313 2.68038762 0 0 Z " fill="#ECB94F" transform="translate(103,81)"/>
<path d="M0 0 C1.65 0 3.3 0 5 0 C5 4.95 5 9.9 5 15 C3.11656068 11.23312136 2.77942165 9.97041037 3 6 C1.02 6 -0.96 6 -3 6 C-3 5.34 -3 4.68 -3 4 C-2.34 3.67 -1.68 3.34 -1 3 C-0.67 2.01 -0.34 1.02 0 0 Z " fill="#E2C689" transform="translate(96,29)"/>
<path d="M0 0 C2.97 0 5.94 0 9 0 C9.33 0.66 9.66 1.32 10 2 C12.01669827 3.13350534 12.01669827 3.13350534 14 4 C13.01 4 12.02 4 11 4 C11 4.66 11 5.32 11 6 C9.68 6 8.36 6 7 6 C7 5.01 7 4.02 7 3 C5.35 3 3.7 3 2 3 C1.67 4.65 1.34 6.3 1 8 C0.67 8 0.34 8 0 8 C0 5.36 0 2.72 0 0 Z " fill="#242228" transform="translate(37,26)"/>
<path d="M0 0 C0.33 0 0.66 0 1 0 C1.50831867 2.83206118 2.00681505 5.66529734 2.5 8.5 C2.64308594 9.29148437 2.78617187 10.08296875 2.93359375 10.8984375 C3.81386457 16.0123918 4.1428131 20.81112402 4 26 C3.67 25.34 3.34 24.68 3 24 C2.34 24 1.68 24 1 24 C0.09958689 15.97667603 -0.11547323 8.07029553 0 0 Z " fill="#B09A56" transform="translate(105,71)"/>
<path d="M0 0 C0.33 0 0.66 0 1 0 C1 7.92 1 15.84 1 24 C0.34 24 -0.32 24 -1 24 C-2.56248344 20.87503311 -1.86860077 17.64823076 -1.625 14.25 C-1.58117188 13.54617187 -1.53734375 12.84234375 -1.4921875 12.1171875 C-1.21830279 8.02413271 -0.74944856 4.03940074 0 0 Z " fill="#D7BC77" transform="translate(34,65)"/>
<path d="M0 0 C0.99 0 1.98 0 3 0 C3.33 1.32 3.66 2.64 4 4 C9.64347086 4.91122528 15.22997887 5.29774046 20.9375 5.5625 C21.81212891 5.60568359 22.68675781 5.64886719 23.58789062 5.69335938 C25.72511995 5.79846901 27.86254238 5.89963985 30 6 C30 6.33 30 6.66 30 7 C26.29168337 7.02918874 22.58339658 7.04686218 18.875 7.0625 C17.82828125 7.07087891 16.7815625 7.07925781 15.703125 7.08789062 C10.6909095 7.10375207 5.92334088 7.08177213 1 6 C0.67 4.02 0.34 2.04 0 0 Z " fill="#D9B56A" transform="translate(40,29)"/>
<path d="M0 0 C0.33 0 0.66 0 1 0 C2.14500285 7.80363479 1.79773542 15.16992004 1 23 C0.67 23 0.34 23 0 23 C-0.19667089 20.47958689 -0.38254317 17.95911728 -0.5625 15.4375 C-0.61857422 14.73302734 -0.67464844 14.02855469 -0.73242188 13.30273438 C-1.05157754 8.68561569 -0.80878035 4.5591248 0 0 Z " fill="#D6B964" transform="translate(36,49)"/>
<path d="M0 0 C0.33 0 0.66 0 1 0 C2.20443195 7.05453001 3.28100502 13.83437211 3 21 C2.67 21 2.34 21 2 21 C-0.82633445 13.63875604 -1.22657444 7.77323077 0 0 Z " fill="#B5975C" transform="translate(102,46)"/>
<path d="M0 0 C1.65 0.33 3.3 0.66 5 1 C3.71034824 2.37562854 2.37310707 3.70766393 1 5 C0.34 5 -0.32 5 -1 5 C-1.33 5.99 -1.66 6.98 -2 8 C-2.66 7.67 -3.32 7.34 -4 7 C-3 4 -3 4 -1 2 C-0.67 1.34 -0.34 0.68 0 0 Z " fill="#E9B241" transform="translate(43,46)"/>
<path d="M0 0 C0.66 0 1.32 0 2 0 C2 3.96 2 7.92 2 12 C1.34 11.67 0.68 11.34 0 11 C-1.27368421 3.82105263 -1.27368421 3.82105263 0 0 Z " fill="#E5B045" transform="translate(90,43)"/>
<path d="M0 0 C2.97 0 5.94 0 9 0 C8.67 0.99 8.34 1.98 8 3 C5.69 3 3.38 3 1 3 C0.67 2.01 0.34 1.02 0 0 Z " fill="#051222" transform="translate(46,26)"/>
<path d="M0 0 C0.33 0.99 0.66 1.98 1 3 C1.66 3 2.32 3 3 3 C3 5.64 3 8.28 3 11 C2.67 10.34 2.34 9.68 2 9 C1.34 9 0.68 9 0 9 C0 6.03 0 3.06 0 0 Z " fill="#C5A96B" transform="translate(106,86)"/>
<path d="M0 0 C1.65 0 3.3 0 5 0 C5 1.98 5 3.96 5 6 C4.67 5.34 4.34 4.68 4 4 C2.35 4 0.7 4 -1 4 C-0.67 2.68 -0.34 1.36 0 0 Z " fill="#787265" transform="translate(96,29)"/>
<path d="M0 0 C1.98 0 3.96 0 6 0 C6 0.66 6 1.32 6 2 C5.01 2.33 4.02 2.66 3 3 C1.78130071 5.50447516 1.78130071 5.50447516 1 8 C0.67 8 0.34 8 0 8 C0 5.36 0 2.72 0 0 Z " fill="#0D0F15" transform="translate(37,26)"/>
<path d="M0 0 C0.33 0 0.66 0 1 0 C0.88512252 1.58409994 0.75765492 3.16728963 0.625 4.75 C0.52058594 6.07257812 0.52058594 6.07257812 0.4140625 7.421875 C0.00149945 9.99066382 -0.71160957 11.75841015 -2 14 C-2.3690205 4.58997722 -2.3690205 4.58997722 0 0 Z " fill="#5F4C2B" transform="translate(39,29)"/>
<path d="M0 0 C0.33 0 0.66 0 1 0 C1 1.98 1 3.96 1 6 C2.32 6.33 3.64 6.66 5 7 C2.69 7.33 0.38 7.66 -2 8 C-2 7.01 -2 6.02 -2 5 C-1.34 5 -0.68 5 0 5 C0 3.35 0 1.7 0 0 Z " fill="#282A20" transform="translate(29,105)"/>
<path d="M0 0 C0.99 0 1.98 0 3 0 C3.12375 0.61875 3.2475 1.2375 3.375 1.875 C3.87197356 4.19120832 3.87197356 4.19120832 6 6 C4.35 6 2.7 6 1 6 C0.67 4.02 0.34 2.04 0 0 Z " fill="#D4C09A" transform="translate(40,29)"/>
<path d="M0 0 C0.33 0.99 0.66 1.98 1 3 C2.32 3 3.64 3 5 3 C5 2.34 5 1.68 5 1 C5.99 1 6.98 1 8 1 C8 1.99 8 2.98 8 4 C5.36 4 2.72 4 0 4 C0 2.68 0 1.36 0 0 Z " fill="#766955" transform="translate(43,29)"/>
</svg>
