<svg width="40" height="40" viewBox="0 0 40 40" fill="none" xmlns="http://www.w3.org/2000/svg">
<path d="M4.46033 13.1895C5.57271 10.8058 13.4314 12.1171 22.014 16.1191C30.5971 20.1215 36.6541 25.2994 35.5424 27.6836L35.4857 27.792C34.1858 30.026 26.4371 28.693 17.9877 24.7529C9.53844 20.8129 3.53767 15.7344 4.41345 13.3027L4.46033 13.1895ZM10.2709 13.2451C8.7314 12.9882 7.49106 12.9397 6.60876 13.0684C5.679 13.204 5.42453 13.4882 5.36658 13.6123C5.30882 13.7367 5.25501 14.1142 5.74841 14.9131C6.21701 15.6716 7.05227 16.5904 8.23865 17.6045C10.6003 19.6232 14.1771 21.8726 18.4105 23.8467C22.6439 25.8207 26.6664 27.1154 29.7308 27.627C31.2703 27.8839 32.5116 27.9333 33.3939 27.8047C34.3229 27.6691 34.5779 27.3849 34.6361 27.2607C34.6939 27.1365 34.7479 26.7582 34.2543 25.959C33.7857 25.2005 32.9504 24.2817 31.764 23.2676C29.4023 21.2489 25.8247 18.9995 21.5912 17.0254C17.3576 15.0513 13.3353 13.7566 10.2709 13.2451ZM6.66638 14.124C7.49331 12.3507 14.1538 13.7066 21.5433 17.1523L22.2299 17.4775C29.2592 20.8601 34.2272 24.8846 33.4261 26.6025L33.3832 26.6836C32.3899 28.3324 25.8225 26.9657 18.5492 23.5742L17.8627 23.249C10.8332 19.8665 5.86565 15.8421 6.66638 14.124ZM8.38025 14.3604C7.84945 14.4028 7.6494 14.5104 7.5863 14.5527C7.59445 14.6284 7.64136 14.8498 7.94958 15.2832C8.36959 15.8735 9.10615 16.6103 10.1488 17.4395C12.2214 19.0877 15.327 20.9683 18.972 22.668C22.6168 24.3675 26.0531 25.5372 28.6478 26.0654C29.9529 26.3311 30.9902 26.4219 31.7123 26.3643C32.24 26.3221 32.44 26.2157 32.5043 26.1729C32.4959 26.0967 32.4508 25.8741 32.1429 25.4414C31.7229 24.8511 30.9863 24.1153 29.9437 23.2861C27.8712 21.638 24.7662 19.7582 21.1215 18.0586C17.4764 16.3589 14.0396 15.1884 11.4447 14.6602C10.1395 14.3945 9.10243 14.3027 8.38025 14.3604Z" fill="#C30909"/>
<path d="M9.93567 20.1758C10.2274 20.3807 10.529 20.5854 10.839 20.791C9.81463 21.4172 8.89665 22.0419 8.10559 22.6494C6.86798 23.5999 5.98623 24.4741 5.47864 25.207C4.94363 25.9797 4.97719 26.3605 5.02844 26.4873C5.08042 26.6146 5.32168 26.911 6.24133 27.0947C7.11557 27.2693 8.35702 27.2853 9.90735 27.1094C12.2991 26.8378 15.2894 26.1242 18.5294 25.0039C18.9763 25.2071 19.421 25.4026 19.8624 25.5908C12.0104 28.4637 5.2457 29.0995 4.15247 26.9727L4.10168 26.8613C3.47004 25.2979 5.8405 22.7433 9.93567 20.1758ZM11.0109 20.9062C11.3152 21.106 11.6288 21.3044 11.9493 21.5039C11.2348 21.9324 10.5845 22.3561 10.0089 22.7666C8.92472 23.5398 8.14962 24.2353 7.69934 24.8027C7.36866 25.2196 7.31101 25.4396 7.29895 25.5146C7.35981 25.5603 7.55417 25.6769 8.08118 25.7471C8.79925 25.8425 9.84025 25.8063 11.1573 25.6094C12.7755 25.3674 14.7274 24.8959 16.8624 24.2168C16.9706 24.2699 17.0785 24.3242 17.1876 24.377L17.9855 24.7549C18.0468 24.7835 18.1088 24.8105 18.17 24.8389C11.9995 26.9331 6.98589 27.4474 6.35754 25.8955C5.91225 24.7934 7.78113 22.9046 11.0109 20.9062ZM27.3947 21.1045C27.7211 21.3121 28.0354 21.5196 28.338 21.7246C26.6093 22.6983 24.6545 23.6551 22.5441 24.54C22.1055 24.3711 21.66 24.193 21.2091 24.0059C21.2756 23.9793 21.3427 23.9537 21.4093 23.9268C23.5922 23.0448 25.6122 22.0827 27.3947 21.1045ZM26.1505 20.3428C26.4908 20.5441 26.8208 20.7459 27.1407 20.9463C25.4378 21.8727 23.4845 22.7964 21.3732 23.6494L20.8497 23.8564C20.4193 23.6745 19.9846 23.4839 19.546 23.2861C20.0249 23.1068 20.5098 22.92 20.9982 22.7227C22.8708 21.966 24.6101 21.1558 26.1505 20.3428ZM20.1339 15.2842C28.122 12.3609 34.9856 11.7541 35.8995 14.0137L35.9406 14.1299C36.4147 15.7026 34.0586 18.1952 30.0597 20.7012C29.7678 20.4962 29.4665 20.2907 29.1564 20.085C30.1826 19.458 31.1024 18.8339 31.8947 18.2256C33.1322 17.2752 34.0149 16.4009 34.5226 15.668C35.0569 14.8963 35.0239 14.5161 34.9728 14.3887C34.9215 14.2618 34.6817 13.9644 33.7599 13.7803C32.8856 13.6057 31.6434 13.5896 30.0929 13.7656C27.6998 14.0374 24.7071 14.7488 21.465 15.8701C21.0187 15.6672 20.5746 15.4722 20.1339 15.2842ZM19.2345 16.875C19.6647 17.0568 20.0999 17.2457 20.5382 17.4434C20.0615 17.622 19.5791 17.8104 19.0929 18.0068C17.2178 18.7644 15.4766 19.5746 13.9347 20.3887C13.5944 20.1873 13.2644 19.9856 12.9445 19.7852C14.649 18.8574 16.6047 17.9333 18.7189 17.0791L19.2345 16.875ZM21.6837 15.9707C27.9633 13.8084 33.0975 13.2619 33.7335 14.834L33.7638 14.9209C34.0871 16.0534 32.1611 17.9405 28.9132 19.9248C28.6072 19.7248 28.2929 19.5249 27.9708 19.3252C28.7527 18.862 29.4611 18.4057 30.0822 17.9629C31.1665 17.1896 31.9414 16.4932 32.3917 15.9258C32.721 15.5108 32.7787 15.2909 32.7911 15.2148C32.7294 15.1688 32.5354 15.0513 32.0099 14.9814C31.2917 14.8861 30.2509 14.9231 28.9337 15.1201C27.2548 15.3713 25.2166 15.867 22.9874 16.5879C22.9277 16.5588 22.8678 16.529 22.8077 16.5L22.0118 16.1211C21.9026 16.0702 21.7927 16.0208 21.6837 15.9707ZM17.6759 16.2432C18.1147 16.4135 18.5601 16.5929 19.0109 16.7812C18.8711 16.8365 18.7302 16.8916 18.59 16.9482C16.4752 17.8027 14.5135 18.7312 12.7726 19.6777C12.445 19.4704 12.1293 19.2634 11.8253 19.0586C13.5738 18.0827 15.5478 17.1261 17.6759 16.2432Z" fill="#C30909"/>
<circle cx="20" cy="20" r="18.75" stroke="#C30909" stroke-width="0.5"/>
</svg>
