<svg width="21" height="21" viewBox="0 0 21 21" fill="none" xmlns="http://www.w3.org/2000/svg">
<path d="M2.21053 18.6667V2.33333V7.55417V7V18.6667ZM4.42105 11.6667H10.5276C10.5645 11.2389 10.6566 10.8306 10.8039 10.4417C10.9513 10.0528 11.1355 9.68333 11.3566 9.33333H4.42105V11.6667ZM4.42105 16.3333H8.75921C9.07237 15.9444 9.43158 15.6285 9.83684 15.3854C10.2421 15.1424 10.6658 14.9431 11.1079 14.7875C11.0342 14.6708 10.9697 14.5444 10.9145 14.4083C10.8592 14.2722 10.8132 14.1361 10.7763 14H4.42105V16.3333ZM4.42105 7H15.4737V4.66667H4.42105V7ZM2.21053 21C1.60263 21 1.08224 20.7715 0.649342 20.3146C0.216447 19.8576 0 19.3083 0 18.6667V2.33333C0 1.69167 0.216447 1.14236 0.649342 0.685417C1.08224 0.228472 1.60263 0 2.21053 0H17.6842C18.2921 0 18.8125 0.228472 19.2454 0.685417C19.6783 1.14236 19.8947 1.69167 19.8947 2.33333V9.85833C19.6368 9.35278 19.3237 8.90556 18.9553 8.51667C18.5868 8.12778 18.1632 7.80694 17.6842 7.55417V2.33333H2.21053V18.6667H7.79211C7.77368 18.7833 7.75987 18.9 7.75066 19.0167C7.74145 19.1333 7.73684 19.25 7.73684 19.3667V21H2.21053ZM15.4737 15.1667C14.7 15.1667 14.0461 14.8847 13.5118 14.3208C12.9776 13.7569 12.7105 13.0667 12.7105 12.25C12.7105 11.4333 12.9776 10.7431 13.5118 10.1792C14.0461 9.61528 14.7 9.33333 15.4737 9.33333C16.2474 9.33333 16.9013 9.61528 17.4355 10.1792C17.9697 10.7431 18.2368 11.4333 18.2368 12.25C18.2368 13.0667 17.9697 13.7569 17.4355 14.3208C16.9013 14.8847 16.2474 15.1667 15.4737 15.1667ZM9.94737 21V19.3667C9.94737 18.9 10.0625 18.4674 10.2928 18.0688C10.523 17.6701 10.85 17.3833 11.2737 17.2083C11.9368 16.9167 12.623 16.6979 13.3322 16.5521C14.0414 16.4062 14.7553 16.3333 15.4737 16.3333C16.1921 16.3333 16.9059 16.4062 17.6151 16.5521C18.3243 16.6979 19.0105 16.9167 19.6737 17.2083C20.0974 17.3833 20.4243 17.6701 20.6546 18.0688C20.8849 18.4674 21 18.9 21 19.3667V21H9.94737Z" fill="#0E7020"/>
</svg>
